# xmcd
#
# Track frame offsets:
#	150
#	25477
#	45107
#	62575
#	82670
#	105255
#	132137
#	149267
#	170342
#	190790
#	210340
#	233662
#	260082
#	279445
#	305515
#
# Disc length: 4316
#
# Revision: 1
# Processed by: cddbd v1.5.1PL0 Copyright (c) Steve Scherf et al.
# Submitted via: CDex 1.50beta9
# Normalized: r0:DSETVAR2,TDELIM( - )
#
DISCID=ba10da0f
DTITLE=Various Artist - Velvet Jazz 2 (Disk1)
DYEAR=2002
DGENRE=Jazz
TTITLE0=George Benson - Breezin
TTITLE1=Boney James and Rick Braun - Grazin in the grass
TTITLE2=Kirk Whalum - I try
TTITLE3=Norman Brown - Just Chillin
TTITLE4=Bob James - Brighton by the sea
TTITLE5=Grover Washington Jr - The best is yet to come
TTITLE6=Euge Groove - Slam dunk
TTITLE7=Donald Byrd - Loving you
TTITLE8=Rick Braun - Kisses in the rain
TTITLE9=Jonathan Butler - Pata pata
TTITLE10=Curtis Mayfield - Back to living again
TTITLE11=Grover Washington Jr - Let it flow
TTITLE12=Larry Carlton - Morning magic
TTITLE13=Fourplay - Double trouble
TTITLE14=Steve Cole - So into to you
EXTD=YEAR: 2002
EXTT0=
EXTT1=
EXTT2=
EXTT3=
EXTT4=
EXTT5=
EXTT6=
EXTT7=
EXTT8=
EXTT9=
EXTT10=
EXTT11=
EXTT12=
EXTT13=
EXTT14=
PLAYORDER=
